# xmcd
#
# Track frame offsets: 
#        150
#        12137
#        26832
#        42282
#        70460
#
# Disc length: 1138 seconds
#
# Revision: 0
# Processed by: cddbd v1.5.2PL0 Copyright (c) Steve Scherf et al.
# Submitted via: ExactAudioCopy v0.99pb4
#
DISCID=3c047005
DTITLE=Black Swans - Sex Brain
DYEAR=2006
DGENRE=
TTITLE0=I.D.W.2.F
TTITLE1=Friends
TTITLE2=Your Hands
TTITLE3=Dark Plums
TTITLE4=My Lips
EXTD=
EXTT0=
EXTT1=
EXTT2=
EXTT3=
EXTT4=
PLAYORDER=
